<svg xmlns="http://www.w3.org/2000/svg" viewBox="0 0 1080 1080" aria-hidden="true">
  <defs>
    <linearGradient id="favicon-ring-light" x1="18%" y1="14%" x2="84%" y2="88%">
      <stop offset="0%" stop-color="#0969da"/>
      <stop offset="52%" stop-color="#218bff"/>
      <stop offset="100%" stop-color="#1a7f37"/>
    </linearGradient>
  </defs>
  <circle cx="540" cy="540" r="458" fill="#ffffff" stroke="url(#favicon-ring-light)" stroke-width="64"/>
  <path d="M649 987Q635 987 627 994Q601 1017 545.0 1017.0Q489 1017 462.0 1003.0Q435 989 428 955Q426 945 422.0 945.0Q418 945 413 946Q232 1001 181 1001Q125 1001 94.5 968.5Q64 936 64.0 884.5Q64 833 79.5 809.5Q95 786 135 772Q144 770 144.0 768.0Q144 766 134 762Q78 736 78 668Q78 605 127 542Q130 539 130.0 536.0Q130 533 123 531Q65 511 65 432Q65 358 126.0 245.0Q187 132 217.0 96.5Q247 61 283.5 61.0Q320 61 369.0 84.5Q418 108 430 167Q432 175 434 175Q437 175 458.0 132.5Q479 90 501.5 75.5Q524 61 547.5 61.0Q571 61 603.5 70.5Q636 80 657 101Q659 104 662.0 104.0Q665 104 670 100Q689 86 717.5 76.5Q746 67 768 67Q844 67 886 191Q888 197 907 197Q964 197 988.5 221.5Q1013 246 1013.0 314.0Q1013 382 983 405Q978 409 978.0 413.0Q978 417 981 421Q999 445 999.0 503.0Q999 561 981 582Q977 587 977.0 590.0Q977 593 982 599Q999 617 999.0 682.5Q999 748 984 769Q981 772 981.0 775.0Q981 778 986 781Q1018 802 1018.0 870.0Q1018 938 997.0 962.5Q976 987 916 987ZM916 950Q954 950 967.5 934.0Q981 918 981.0 875.5Q981 833 966.5 817.5Q952 802 916 802H859Q851 802 851 793V763Q851 761 853.5 758.5Q856 756 859 756H897Q941 756 951.5 742.5Q962 729 962.0 686.0Q962 643 952.5 628.5Q943 614 897 614H859Q851 614 851 605V579Q851 572 859 572H892Q933 572 947.5 558.0Q962 544 962.0 503.0Q962 462 948.5 447.0Q935 432 892 432H859Q851 432 851 422V395Q851 388 859 388H907Q945 388 960.5 371.5Q976 355 976.0 311.0Q976 267 960.0 250.5Q944 234 907 234H872Q860 234 857 224Q840 164 817.0 135.0Q794 106 763.5 106.0Q733 106 703.0 123.0Q673 140 673 171Q673 185 681.0 203.5Q689 222 689.0 228.0Q689 234 681 234H639Q632 234 632.0 231.0Q632 228 633 226Q645 197 645 172Q645 132 615.5 115.5Q586 99 560.5 99.0Q535 99 520.5 110.5Q506 122 489.0 154.0Q472 186 456.5 217.5Q441 249 441.0 258.0Q441 267 458.0 275.0Q475 283 494.0 306.0Q513 329 513.0 373.5Q513 418 488 454Q468 485 468 501Q468 527 474 530Q487 540 495.5 561.0Q504 582 504.0 612.0Q504 642 496.5 663.0Q489 684 465 704Q456 712 456.0 715.5Q456 719 463 724Q487 738 496.5 768.0Q506 798 506 824Q506 876 470 909Q463 918 463.0 938.0Q463 958 480.0 969.0Q497 980 547.0 980.0Q597 980 611 959Q616 950 625 950ZM688 422Q688 432 679 432H627Q620 432 620 422V395Q620 388 627 388H679Q688 388 688 395ZM688 605Q688 614 679 614H627Q620 614 620 605V579Q620 572 627 572H679Q688 572 688 579ZM688 793Q688 802 680 802H627Q620 802 620 793V763Q620 761 622.5 758.5Q625 756 627 756H679Q688 756 688 763ZM199 500Q206 500 206.0 503.0Q206 506 204 509Q147 570 131.5 604.0Q116 638 116.0 668.0Q116 698 136.0 717.0Q156 736 187.5 736.0Q219 736 258.0 732.0Q297 728 337.5 718.5Q378 709 402.5 700.5Q427 692 443.5 679.5Q460 667 466.5 650.5Q473 634 473.0 606.0Q473 578 457.5 560.5Q442 543 415 543Q406 543 392.5 546.0Q379 549 374.0 549.0Q369 549 369 547Q369 544 387.0 527.0Q405 510 437.5 469.5Q470 429 476.5 409.5Q483 390 483 373Q483 329 453.5 309.0Q424 289 395.0 289.0Q366 289 332 343Q325 355 321.0 358.0Q317 361 309.5 361.0Q302 361 302 358Q302 352 381 230Q394 210 394 186Q394 144 358.0 122.0Q322 100 295.5 100.0Q269 100 251.5 116.5Q234 133 196.5 195.0Q159 257 130.0 323.0Q101 389 101 434Q101 500 158 500ZM475 822Q475 790 460.5 766.0Q446 742 412.0 742.0Q378 742 330 760Q261 783 177 799Q132 809 116.5 826.5Q101 844 101.0 881.5Q101 919 123.0 941.0Q145 963 182.5 963.0Q220 963 297.0 941.5Q374 920 408.5 909.0Q443 898 459.0 875.0Q475 852 475 822Z" fill="#1f2328" transform="translate(161 160) scale(0.705)"/>
</svg>
